<?xml version="1.0" encoding="UTF-8" standalone="no"?>
<!-- Created with Inkscape (http://www.inkscape.org/) -->

<svg
   xmlns:dc="http://purl.org/dc/elements/1.1/"
   xmlns:cc="http://creativecommons.org/ns#"
   xmlns:rdf="http://www.w3.org/1999/02/22-rdf-syntax-ns#"
   xmlns:svg="http://www.w3.org/2000/svg"
   xmlns="http://www.w3.org/2000/svg"
   xmlns:sodipodi="http://sodipodi.sourceforge.net/DTD/sodipodi-0.dtd"
   xmlns:inkscape="http://www.inkscape.org/namespaces/inkscape"
   width="16px"
   height="16px"
   viewBox="0 0 16 16"
   version="1.1"
   id="SVGRoot"
   inkscape:version="0.92.3 (unknown)"
   sodipodi:docname="icon-source-code.svg">
  <sodipodi:namedview
     id="base"
     pagecolor="#ffffff"
     bordercolor="#666666"
     borderopacity="1.0"
     inkscape:pageopacity="0.0"
     inkscape:pageshadow="2"
     inkscape:zoom="16"
     inkscape:cx="16.08411"
     inkscape:cy="2.0734307"
     inkscape:document-units="px"
     inkscape:current-layer="layer1"
     showgrid="false"
     inkscape:window-width="1293"
     inkscape:window-height="744"
     inkscape:window-x="67"
     inkscape:window-y="24"
     inkscape:window-maximized="1"
     inkscape:grid-bbox="true" />
  <defs
     id="defs815">
    <style
       id="style1376"
       type="text/css" />
  </defs>
  <metadata
     id="metadata818">
    <rdf:RDF>
      <cc:Work
         rdf:about="">
        <dc:format>image/svg+xml</dc:format>
        <dc:type
           rdf:resource="http://purl.org/dc/dcmitype/StillImage" />
        <dc:title></dc:title>
      </cc:Work>
    </rdf:RDF>
  </metadata>
  <g
     id="layer1"
     inkscape:groupmode="layer"
     inkscape:label="Layer 1">
    <path
       id="path1380"
       p-id="1746"
       d="m 5.2610551,4.7532208 c -0.3369751,-0.3375041 -0.8835297,-0.3375041 -1.2203813,0 L 1.4040234,7.3897469 c -0.3373645,0.3368356 -0.3373645,0.8833902 0,1.2202417 l 2.6366504,2.6371164 c 0.1684258,0.168162 0.3895652,0.252632 0.6101908,0.252632 0.2206253,0 0.4416406,-0.08449 0.6101905,-0.252632 0.3368362,-0.337099 0.3368362,-0.88353 0,-1.220567 l -2.0267389,-2.0265999 2.0267389,-2.0266 c 0.3368362,-0.3369758 0.3368362,-0.8834059 0,-1.2201173 z M 14.594744,7.3897469 11.957969,4.7532208 c -0.336975,-0.3375041 -0.883406,-0.3375041 -1.220241,0 -0.336976,0.3367114 -0.336976,0.8831415 0,1.2201018 l 2.026599,2.0266002 -2.026599,2.0266152 c -0.336976,0.337037 -0.336976,0.883468 0,1.220567 0.16841,0.168162 0.3893,0.252632 0.61005,0.252632 0.220626,0 0.441765,-0.08449 0.610191,-0.252632 L 14.59476,8.6099886 c 0.337224,-0.3368362 0.337224,-0.8834061 -1.6e-5,-1.2202417 z M 9.3112053,4.558112 C 8.8663748,4.3862479 8.3668396,4.6085864 8.1958769,5.0534001 L 6.1649061,10.326654 C 5.9938352,10.771609 6.2149701,11.27049 6.6598045,11.44209 6.7620736,11.48115 6.867268,11.5 6.9698015,11.5 c 0.3466693,0 0.6735468,-0.210388 0.8054406,-0.553074 L 9.8063529,5.6735456 C 9.977315,5.2288557 9.7556324,4.7291801 9.3112053,4.5581094 Z"
       inkscape:connector-curvature="0"
       style="stroke-width:0.01519429;fill:#828282;fill-opacity:1" />
  </g>
</svg>
